<svg class="svg-icon" style="width: 1em; height: 1em;vertical-align: middle;fill: currentColor;overflow: hidden;" viewBox="0 0 1024 1024" version="1.1" xmlns="http://www.w3.org/2000/svg"><path d="M426.666667 170.666667h426.666666a42.666667 42.666667 0 0 1 0 85.333333H426.666667a42.666667 42.666667 0 1 1 0-85.333333z m0 298.666666h426.666666a42.666667 42.666667 0 0 1 0 85.333334H426.666667a42.666667 42.666667 0 0 1 0-85.333334z m0 298.666667h426.666666a42.666667 42.666667 0 0 1 0 85.333333H426.666667a42.666667 42.666667 0 0 1 0-85.333333zM213.333333 298.666667a85.333333 85.333333 0 1 1 0-170.666667 85.333333 85.333333 0 0 1 0 170.666667z m0 298.666666a85.333333 85.333333 0 1 1 0-170.666666 85.333333 85.333333 0 0 1 0 170.666666z m0 298.666667a85.333333 85.333333 0 1 1 0-170.666667 85.333333 85.333333 0 0 1 0 170.666667z" fill="#000000" /></svg>